<?xml version="1.0" standalone="no"?><!DOCTYPE svg PUBLIC "-//W3C//DTD SVG 1.1//EN" "http://www.w3.org/Graphics/SVG/1.1/DTD/svg11.dtd"><svg t="1574822250509" class="icon" viewBox="0 0 1024 1024" version="1.1" xmlns="http://www.w3.org/2000/svg" p-id="3027" xmlns:xlink="http://www.w3.org/1999/xlink" width="200" height="200"><defs><style type="text/css"></style></defs><path d="M789.333333 362.666667C789.333333 209.749333 664.917333 85.333333 512 85.333333S234.666667 209.749333 234.666667 362.666667c0 138.368 101.973333 253.098667 234.666666 273.706666V725.333333H341.333333v85.333334h128v127.488h85.333334V810.666667h128v-85.333334h-128v-88.96c132.650667-20.608 234.666667-135.338667 234.666666-273.706666z m-469.333333 0C320 256.810667 406.144 170.666667 512 170.666667s192 86.144 192 192a192.213333 192.213333 0 0 1-191.786667 192h-0.426666A192.213333 192.213333 0 0 1 320 362.666667z" fill="#d4237a" p-id="3028"></path></svg>